<svg width="17" height="13" viewBox="0 0 17 13" fill="none" xmlns="http://www.w3.org/2000/svg">
<path d="M8.3004 2.09913C9.6376 2.09432 10.9489 2.50466 12.0836 3.28299C13.2183 4.06131 14.1303 5.17604 14.7148 6.49904C14.1268 7.81915 13.2139 8.93136 12.08 9.70925C10.946 10.4871 9.63644 10.8995 8.30005 10.8995C6.96366 10.8995 5.65407 10.4871 4.52011 9.70925C3.38615 8.93136 2.4733 7.81915 1.8853 6.49904C2.46987 5.17592 3.38198 4.06112 4.5168 3.28278C5.65162 2.50445 6.96307 2.09418 8.3004 2.09913ZM8.3004 0.5C6.57336 0.501054 4.8866 1.07399 3.45969 2.14423C2.03277 3.21447 0.931791 4.73244 0.300049 6.50056C0.931127 8.26901 2.03193 9.78729 3.45894 10.8574C4.88595 11.9276 6.57297 12.5 8.30005 12.5C10.0271 12.5 11.7141 11.9276 13.1412 10.8574C14.5682 9.78729 15.669 8.26901 16.3 6.50056C15.6684 4.73256 14.5675 3.21467 13.1407 2.14444C11.7139 1.07421 10.0273 0.501207 8.3004 0.5ZM8.3004 4.50012C8.66007 4.50012 9.01167 4.61744 9.31072 4.83725C9.60978 5.05706 9.84287 5.36949 9.98051 5.73502C10.1182 6.10056 10.1542 6.50278 10.084 6.89082C10.0138 7.27887 9.84063 7.63532 9.5863 7.91508C9.33197 8.19485 9.00794 8.38537 8.65517 8.46256C8.30241 8.53975 7.93676 8.50013 7.60447 8.34872C7.27217 8.19732 6.98815 7.94091 6.78833 7.61194C6.58851 7.28297 6.48185 6.89621 6.48185 6.50056C6.48185 5.97001 6.67345 5.46119 7.01449 5.08603C7.35553 4.71088 7.81809 4.50012 8.3004 4.50012ZM8.3004 2.90098C7.65306 2.90098 7.02027 3.11214 6.48203 3.50775C5.9438 3.90336 5.52429 4.46566 5.27657 5.12353C5.02885 5.78141 4.96403 6.50531 5.09032 7.20371C5.21661 7.90211 5.52833 8.54363 5.98606 9.04714C6.44379 9.55066 7.02698 9.89356 7.66187 10.0325C8.29676 10.1714 8.95485 10.1001 9.5529 9.8276C10.151 9.55509 10.6621 9.09363 11.0218 8.50156C11.3814 7.90949 11.5734 7.2134 11.5734 6.50132C11.5723 5.54675 11.2271 4.63162 10.6136 3.95656C10 3.28151 9.16816 2.9024 8.3004 2.90098Z" fill="black"/>
</svg>
