<svg width="119" height="36" viewBox="0 0 119 36" fill="none" xmlns="http://www.w3.org/2000/svg">
<path d="M4.95731 35.1448V34.7508C4.95731 27.9508 4.95931 21.1538 4.96331 14.3598C4.96331 14.1168 4.89131 14.0508 4.66331 14.0518C3.35331 14.0598 2.04131 14.0518 0.643311 14.0518C1.11331 13.6708 1.52231 13.3338 1.93831 13.0008C2.89731 12.2318 3.86131 11.4688 4.81331 10.6898C4.89729 10.5999 4.94317 10.4809 4.94131 10.3578C4.94131 7.75783 4.93764 5.15783 4.93031 2.55783C4.93031 2.28883 4.98431 2.17683 5.28731 2.17783C7.28731 2.19183 9.28731 2.19183 11.2873 2.17783C11.5423 2.17783 11.6273 2.23683 11.6223 2.50783C11.6043 3.36283 11.6153 4.21983 11.6153 5.14083C11.7022 5.10609 11.7855 5.06323 11.8643 5.01283C13.531 3.6735 15.1976 2.3325 16.8643 0.989828C17.0493 0.839828 17.1823 0.782828 17.4083 0.971828C18.3083 1.72983 19.2423 2.45783 20.1623 3.19583C21.283 4.0945 22.404 4.9945 23.5253 5.89583C24.8493 6.9625 26.172 8.02916 27.4933 9.09583C28.7113 10.0778 29.93 11.0585 31.1493 12.0378C31.9633 12.6898 32.7813 13.3378 33.6763 14.0498H12.0693C11.5693 14.0498 11.6203 14.0018 11.6203 14.4918C11.6203 21.2392 11.6203 27.9865 11.6203 34.7338V35.1338L4.95731 35.1448Z" fill="#0B5AA5"/>
<path d="M13.0783 27.6908V26.1588C13.0783 25.0528 13.0783 23.9468 13.0783 22.8398C13.0783 22.6478 13.0603 22.5558 13.3513 22.5558C16.2763 22.5658 19.2013 22.5388 22.1263 22.5218H22.1853C22.7193 22.5448 22.7193 22.5448 22.7193 21.9868V15.4198H29.3443V35.1478H22.7173V34.7938C22.7173 32.5418 22.7113 30.2888 22.7233 28.0368C22.7233 27.7578 22.6443 27.6838 22.3733 27.6858C19.396 27.6945 16.4193 27.6965 13.4433 27.6918L13.0783 27.6908Z" fill="#0B5AA5"/>
<path d="M111.167 26.0858C111.207 27.3105 110.969 28.5284 110.473 29.6488C109.88 30.9875 108.838 32.0777 107.528 32.7318C106.717 33.1263 105.846 33.3828 104.95 33.4908C104.075 33.6192 103.186 33.6363 102.306 33.5418C100.541 33.4345 98.8775 32.6771 97.6373 31.4158C96.768 30.4979 96.1822 29.3486 95.9503 28.1058C95.5762 26.3888 95.6765 24.6023 96.2403 22.9378C96.584 21.9296 97.1748 21.0235 97.9588 20.3024C98.7428 19.5813 99.6949 19.0682 100.728 18.8098C101.79 18.5175 102.892 18.3989 103.991 18.4588C105.438 18.4749 106.854 18.879 108.091 19.6288C109.237 20.3602 110.115 21.4444 110.591 22.7178C111.002 23.7921 111.197 24.9363 111.167 26.0858ZM106.589 26.0858C106.504 25.4068 106.444 24.7258 106.33 24.0528C106.234 23.4093 105.944 22.8104 105.498 22.3358C105.213 22.0622 104.871 21.8538 104.497 21.7252C104.123 21.5965 103.726 21.5507 103.332 21.5908C102.763 21.5595 102.201 21.7234 101.738 22.0555C101.275 22.3876 100.939 22.8679 100.786 23.4168C100.29 24.9403 100.23 26.5721 100.613 28.1278C100.686 28.73 100.963 29.289 101.399 29.7109C101.834 30.1329 102.402 30.392 103.006 30.4448C103.708 30.5952 104.44 30.4649 105.046 30.0819C105.653 29.6989 106.085 29.0937 106.25 28.3958C106.457 27.6425 106.571 26.8667 106.589 26.0858Z" fill="#0B5AA5"/>
<path d="M47.2333 26.0358C47.2987 27.4701 46.9731 28.8952 46.2913 30.1588C45.702 31.2256 44.815 32.0977 43.7383 32.6688C42.9777 33.0779 42.1506 33.3488 41.2953 33.4688C40.4318 33.6095 39.5541 33.6431 38.6823 33.5688C37.695 33.4985 36.7255 33.2693 35.8113 32.8898C34.4279 32.2999 33.305 31.2288 32.6503 29.8748C32.2043 28.9463 31.9408 27.9408 31.8743 26.9128C31.7012 25.3782 31.9304 23.825 32.5393 22.4058C33.0804 21.1776 34.0045 20.1574 35.1733 19.4978C36.2125 18.9218 37.3659 18.5821 38.5513 18.5028C40.0195 18.3453 41.5043 18.5161 42.8983 19.0028C44.1613 19.4523 45.2454 20.2976 45.9893 21.4128C46.8847 22.7825 47.3204 24.4018 47.2333 26.0358ZM36.4633 26.0468C36.4197 26.9288 36.5435 27.811 36.8283 28.6468C37.0315 29.292 37.4781 29.8326 38.0733 30.1538C38.7054 30.4596 39.4172 30.5603 40.1093 30.4418C40.5826 30.4039 41.0325 30.2206 41.3973 29.9168C42.0532 29.3287 42.4557 28.5094 42.5203 27.6308C42.5913 26.8308 42.5863 26.0308 42.5873 25.2308C42.5883 24.5549 42.4523 23.8857 42.1873 23.2638C42.0686 22.9285 41.8809 22.6217 41.6363 22.3633C41.3917 22.105 41.0957 21.9008 40.7673 21.7638C40.2423 21.5949 39.6883 21.5353 39.1393 21.5888C38.7028 21.5932 38.2764 21.721 37.9094 21.9574C37.5425 22.1938 37.2498 22.5292 37.0653 22.9248C36.5954 23.895 36.3872 24.9715 36.4633 26.0468Z" fill="#0B5AA5"/>
<path d="M94.4854 26.7868H84.1014C84.1304 27.0971 84.1765 27.4056 84.2394 27.7108C84.4024 28.3714 84.7639 28.9661 85.2753 29.4149C85.7866 29.8637 86.4232 30.1449 87.0994 30.2208C87.7334 30.347 88.379 30.406 89.0254 30.3968C90.4215 30.3493 91.7837 29.954 92.9884 29.2468C93.2364 29.1068 93.4654 28.9308 93.7184 28.8008C93.8645 28.7526 94.0166 28.725 94.1704 28.7188C94.1814 28.8388 94.1954 28.9188 94.1954 29.0068C94.1954 30.0328 94.1894 31.0598 94.1954 32.0858C94.2059 32.1613 94.1878 32.238 94.1447 32.3009C94.1016 32.3638 94.0366 32.4084 93.9624 32.4258C92.8078 32.8951 91.598 33.215 90.3624 33.3778C89.1522 33.5333 87.928 33.5484 86.7144 33.4228C85.204 33.3185 83.7448 32.8326 82.4734 32.0108C81.1838 31.1487 80.2689 29.8297 79.9134 28.3198C79.6172 27.0825 79.57 25.7986 79.7744 24.5428C79.9455 23.2806 80.4568 22.0887 81.2534 21.0948C82.1617 19.9802 83.4018 19.1843 84.7934 18.8228C86.0358 18.4836 87.3297 18.3741 88.6114 18.4998C89.6895 18.5699 90.7393 18.8747 91.6874 19.3928C92.7001 19.9693 93.4831 20.8773 93.9044 21.9638C94.3001 22.9487 94.4952 24.0026 94.4784 25.0638C94.4854 25.6248 94.4854 26.1868 94.4854 26.7868ZM84.1244 24.1778C84.2174 24.1858 84.2844 24.1958 84.3534 24.1958C86.1454 24.1958 87.9384 24.1958 89.7304 24.2018C89.9604 24.2018 90.0634 24.1398 90.0304 23.9018C90.0054 23.7258 89.9994 23.5458 89.9674 23.3718C89.9368 22.9754 89.7999 22.5945 89.5711 22.2693C89.3423 21.9441 89.0301 21.6866 88.6674 21.5238C88.1411 21.2969 87.5687 21.1972 86.9967 21.233C86.4247 21.2688 85.8692 21.439 85.3754 21.7298C84.9604 21.9817 84.6236 22.3441 84.4027 22.7764C84.1818 23.2087 84.0854 23.6939 84.1244 24.1778Z" fill="#0B5AA5"/>
<path d="M48.9293 18.9518H53.3213V19.3188C53.3213 21.4818 53.3113 23.6448 53.3273 25.8068C53.3253 26.5522 53.3654 27.297 53.4473 28.0378C53.437 28.2933 53.4806 28.5481 53.5754 28.7855C53.6701 29.023 53.8138 29.2378 53.9971 29.416C54.1804 29.5943 54.3992 29.7319 54.6393 29.8199C54.8793 29.9079 55.1352 29.9443 55.3903 29.9268C56.4355 30.0071 57.4785 29.7457 58.3623 29.1818C58.4346 29.1431 58.4929 29.0825 58.5288 29.0087C58.5647 28.9349 58.5764 28.8517 58.5623 28.7708C58.5623 25.6315 58.5623 22.4922 58.5623 19.3528V18.9528H63.0243V19.2758C63.0243 23.7712 63.0266 28.2662 63.0313 32.7608C63.0313 33.0708 62.9393 33.1428 62.6463 33.1388C61.3943 33.1228 60.1463 33.1318 58.8903 33.1318H58.5543V31.5788C58.3803 31.6788 58.2683 31.7468 58.1603 31.8148C57.5693 32.1888 56.9863 32.5738 56.3893 32.9348C55.7378 33.3014 55.0091 33.5094 54.2623 33.5418C53.3303 33.6344 52.3899 33.497 51.5233 33.1418C51.0078 32.9279 50.5435 32.607 50.1612 32.2003C49.7788 31.7937 49.4871 31.3106 49.3053 30.7828C49.0399 30.0657 48.9068 29.3065 48.9123 28.5418C48.9123 25.4225 48.9123 22.3028 48.9123 19.1828C48.9132 19.1056 48.9189 19.0284 48.9293 18.9518Z" fill="#0B5AA5"/>
<path d="M72.5403 22.1848H65.6163V18.9548H78.3163C78.3223 19.0338 78.3343 19.1198 78.3343 19.2048C78.3343 19.9428 78.3453 20.6788 78.3273 21.4168C78.3195 21.5896 78.2552 21.7551 78.1443 21.8878C76.3409 23.8732 74.5313 25.8528 72.7153 27.8268C72.2293 28.3568 71.7383 28.8838 71.2593 29.4208C71.1832 29.5365 71.1218 29.6611 71.0763 29.7918H78.4313V33.1318H78.1173C73.9486 33.1318 69.78 33.1342 65.6113 33.1388C65.3063 33.1388 65.2263 33.0518 65.2353 32.7518C65.2563 32.0158 65.2353 31.2778 65.2503 30.5398C65.2577 30.3671 65.3224 30.2017 65.4343 30.0698C67.1263 28.2232 68.8263 26.3828 70.5343 24.5488C71.1573 23.8758 71.7833 23.2038 72.4033 22.5278C72.4723 22.4434 72.5357 22.3545 72.5933 22.2618L72.5403 22.1848Z" fill="#0B5AA5"/>
<path d="M112.738 26.0308C112.738 24.4368 112.752 22.8438 112.738 21.2488C112.74 20.6924 112.905 20.1487 113.213 19.6849C113.52 19.2211 113.957 18.8575 114.468 18.6388C114.903 18.4484 115.383 18.385 115.853 18.4557C116.323 18.5265 116.763 18.7287 117.122 19.0388C117.479 19.3153 117.764 19.6739 117.953 20.0841C118.142 20.4942 118.229 20.9439 118.206 21.3948C118.214 24.5128 118.214 27.6305 118.206 30.7478C118.232 31.3452 118.067 31.9352 117.735 32.4327C117.404 32.9302 116.923 33.3095 116.361 33.5158C115.934 33.6814 115.469 33.7271 115.017 33.648C114.565 33.5689 114.143 33.3679 113.797 33.0668C113.463 32.8083 113.194 32.4753 113.012 32.0943C112.829 31.7134 112.738 31.2951 112.746 30.8728C112.73 29.2598 112.738 27.6458 112.738 26.0308ZM116.806 29.7878C116.926 29.686 117.023 29.5605 117.092 29.4193C117.161 29.2781 117.2 29.1241 117.207 28.9671C117.213 28.8101 117.187 28.6534 117.131 28.5069C117.074 28.3604 116.987 28.2273 116.876 28.1158C117.188 28.0378 117.251 27.7868 117.099 27.2708C116.348 27.2708 115.591 27.2648 114.834 27.2708C114.143 27.2778 114.208 27.1408 114.192 27.9298C114.192 28.1438 114.266 28.2088 114.467 28.2038C114.881 28.1938 115.295 28.1908 115.707 28.2038C115.873 28.2072 116.036 28.2411 116.189 28.3038C116.249 28.3228 116.301 28.359 116.34 28.408C116.379 28.4569 116.403 28.5163 116.408 28.5786C116.413 28.6408 116.399 28.7032 116.369 28.7578C116.338 28.8123 116.292 28.8565 116.236 28.8848C116.13 28.9518 116.009 28.9916 115.883 29.0008C115.539 29.0188 115.195 29.0108 114.85 29.0168C114.099 29.0298 114.217 28.9038 114.194 29.6858C114.187 29.9168 114.272 29.9718 114.487 29.9648C114.969 29.9508 115.451 29.9538 115.934 29.9648C115.993 29.96 116.052 29.9674 116.108 29.9866C116.164 30.0059 116.215 30.0365 116.258 30.0766C116.301 30.1166 116.336 30.1653 116.359 30.2194C116.383 30.2735 116.395 30.3319 116.394 30.3908C116.358 30.6578 116.161 30.7338 115.923 30.7338C115.559 30.7338 115.194 30.7338 114.83 30.7338C114.161 30.7438 114.201 30.5968 114.197 31.4028C114.197 31.5878 114.249 31.6708 114.448 31.6678C115.039 31.6568 115.63 31.6778 116.219 31.6538C116.423 31.6499 116.622 31.5909 116.795 31.4828C116.926 31.3839 117.032 31.2564 117.105 31.11C117.179 30.9636 117.217 30.8023 117.218 30.6385C117.219 30.4748 117.183 30.313 117.111 30.1657C117.04 30.0183 116.936 29.8884 116.806 29.7878ZM115.653 26.7668C115.856 26.7929 116.061 26.7737 116.255 26.7108C116.449 26.6479 116.627 26.5427 116.775 26.4029C116.924 26.2631 117.04 26.0921 117.114 25.9022C117.189 25.7124 117.22 25.5083 117.206 25.3048C117.225 25.0972 117.199 24.888 117.129 24.6915C117.059 24.4951 116.947 24.3162 116.802 24.1671C116.656 24.018 116.48 23.9024 116.285 23.8281C116.09 23.7538 115.881 23.7227 115.673 23.7368C115.278 23.744 114.901 23.9054 114.623 24.1865C114.346 24.4677 114.189 24.8463 114.186 25.2416C114.183 25.6368 114.335 26.0175 114.609 26.3023C114.884 26.587 115.258 26.7544 115.653 26.7668ZM114.969 23.3828C114.94 22.4878 115.156 22.1128 115.694 22.1028C116.194 22.0948 116.412 22.4808 116.394 23.3528C117.017 23.6748 117.177 23.5888 117.194 22.8938C117.231 22.6118 117.191 22.3253 117.08 22.0635C116.969 21.8017 116.791 21.574 116.563 21.4038C116.306 21.2174 115.997 21.1138 115.679 21.107C115.361 21.1002 115.049 21.1905 114.783 21.3658C114.545 21.5215 114.358 21.7444 114.246 22.0064C114.134 22.2685 114.102 22.5578 114.154 22.8378C114.19 23.5958 114.256 23.6358 114.969 23.3828ZM114.714 20.7828C115.094 20.7828 115.314 20.6048 115.314 20.2928C115.319 20.2142 115.306 20.1355 115.278 20.062C115.25 19.9885 115.206 19.9219 115.15 19.8664C115.094 19.811 115.027 19.7682 114.953 19.7406C114.88 19.7131 114.801 19.7016 114.722 19.7068C114.646 19.7002 114.569 19.7102 114.497 19.736C114.424 19.7618 114.358 19.8028 114.303 19.8563C114.248 19.9098 114.206 19.9745 114.178 20.046C114.15 20.1175 114.138 20.1942 114.142 20.2708C114.143 20.6018 114.351 20.7878 114.714 20.7878V20.7828Z" fill="#0B5AA5"/>
<path d="M115.664 25.8238C115.189 25.7928 114.864 25.5728 114.864 25.2648C114.864 24.9568 115.219 24.7118 115.689 24.7268C115.855 24.7163 116.021 24.7509 116.168 24.8268C116.306 24.9268 116.468 25.1198 116.459 25.2628C116.413 25.4473 116.298 25.6071 116.137 25.7088C115.988 25.777 115.828 25.816 115.664 25.8238Z" fill="#0B5AA5"/>
</svg>
